#!OML:ASF Y:\EmotionMaleHayes\Project 1\Capture day 1\Session 1\Male1.ASF
:FULLY-SPECIFIED
:DEGREES
1522
root 17.5715 16.5809 17.4675 573.425 -61.8994 140.098
lowerback 4.68605 -1.56758 -17.424
upperback 2.38639 -3.09197 -3.16652
thorax 0.632783 -1.83517 6.45409
lowerneck -17.514 -3.6941 -5.02225
upperneck 23.3191 -6.85647 9.5701
head 10.9503 -2.63316 3.26276
rclavicle -4.35338e-014 7.35503e-014
rhumerus -49.616 -7.26669 -69.6673
rradius 28.527
rwrist 6.31949
rhand -9.8779 -34.2848
rfingers 7.12502
rthumb 16.1012 -63.6359
lclavicle -4.35338e-014 7.35503e-014
lhumerus -15.5235 -14.7563 82.5945
lradius 42.756
lwrist 3.54494
lhand -22.6342 -27.0274
lfingers 7.12502
lthumb 3.79636 2.91854
rfemur -16.6671 -22.1174 13.8488
rtibia 13.7994
rfoot -13.143 -21.4711
rtoes 47.4378
lfemur 15.9674 11.7617 -35.9604
ltibia 14.033
lfoot -20.3025 7.33316
ltoes -29.3117
1523
root 17.4488 16.5674 17.4286 572.493 -61.5188 141.261
lowerback 4.5085 -1.60916 -16.8792
upperback 2.18338 -3.08874 -3.02243
thorax 0.490161 -1.79795 6.31336
lowerneck -17.1561 -3.89894 -5.40377
upperneck 23.1936 -7.10048 9.75798
head 10.8771 -2.7733 3.35988
rclavicle 1.02076e-013 1.19271e-014
rhumerus -49.8676 -7.34999 -69.4343
rradius 28.4674
rwrist 5.77164
rhand -9.95781 -34.3932
rfingers 7.12502
rthumb 16.0243 -63.7505
lclavicle 1.02076e-013 1.19271e-014
lhumerus -15.8633 -14.4434 82.8519
lradius 42.3767
lwrist 2.9997
lhand -22.9102 -26.8372
lfingers 7.12502
lthumb 3.52979 3.11329
rfemur -16.5572 -20.9519 14.2904
rtibia 13.8849
rfoot -14.3667 -21.8093
rtoes 47.4773
lfemur 15.7097 11.8798 -35.6642
ltibia 15.1741
lfoot -20.601 7.29918
ltoes -30.248
1524
root 17.3398 16.5323 17.3741 569.555 -61.7947 144.524
lowerback 4.47787 -1.77612 -15.4542
upperback 2.26921 -3.19314 -2.55604
thorax 0.569372 -1.83265 6.03477
lowerneck -17.8479 -3.92758 -5.13401
upperneck 23.5658 -7.19859 9.60379
head 11.144 -2.78496 3.24167
rclavicle -1.49089e-015 5.88403e-014
rhumerus -49.41 -8.02656 -69.1504
rradius 28.1861
rwrist 6.05731
rhand -9.6435 -34.6247
rfingers 7.12502
rthumb 16.3269 -63.9574
lclavicle -1.49089e-015 5.88403e-014
lhumerus -15.7495 -13.9425 82.6759
lradius 41.9972
lwrist 3.02838
lhand -22.7911 -26.7883
lfingers 7.12502
lthumb 3.64484 3.16033
rfemur -15.9857 -18.494 16.0452
rtibia 13.531
rfoot -16.1851 -22.5583
rtoes 48.1468
lfemur 15.6037 11.9477 -33.668
ltibia 16.4984
lfoot -20.7729 7.30801
ltoes -31.9741
1525
root 17.2196 16.5107 17.3248 567.701 -61.6863 146.547
lowerback 5.29388 -1.72509 -14.8576
upperback 1.63891 -3.26352 -1.97877
thorax -0.546634 -1.73803 6.38671
lowerneck -17.9038 -4.08364 -5.35503
upperneck 24.4199 -7.38874 9.2519
head 11.4846 -2.93108 3.13207
rclavicle 5.68027e-014 4.29375e-014
rhumerus -50.1546 -8.52579 -67.8892
rradius 28.007
rwrist 6.62809
rhand -9.4519 -34.2245
rfingers 7.12502
rthumb 16.5114 -63.542
lclavicle 5.68027e-014 4.29375e-014
lhumerus -16.9981 -13.4461 83.5067
lradius 41.8365
lwrist 3.08057
lhand -22.3555 -26.9298
lfingers 7.12502
lthumb 4.06544 3.01114
rfemur -15.467 -17.2262 16.8862
rtibia 13.3807
rfoot -16.635 -22.5217
rtoes 47.2289
lfemur 15.3839 12.1669 -32.5009
ltibia 18.069
lfoot -20.6004 7.18694
ltoes -32.5947
1526
root 17.092 16.4976 17.2779 566.179 -61.4633 148.18
lowerback 5.47944 -1.75354 -14.3785
upperback 1.39624 -3.29322 -1.49331
thorax -0.898959 -1.70455 6.65792
lowerneck -17.7907 -4.26999 -5.73867
upperneck 24.6424 -7.56879 9.18999
head 11.5746 -3.0611 3.15005
rclavicle -4.64659e-014 -6.04305e-014
rhumerus -50.3648 -8.8922 -66.9784
rradius 27.8223
rwrist 7.01632
rhand -9.34477 -33.6321
rfingers 7.12502
rthumb 16.6145 -62.9409
lclavicle -4.64659e-014 -6.04305e-014
lhumerus -17.7638 -12.8209 84.1611
lradius 41.5508
lwrist 2.65407
lhand -22.3423 -26.8773
lfingers 7.12502
lthumb 4.07825 3.06345
rfemur -14.9312 -16.4402 17.4197
rtibia 13.4325
rfoot -17.5121 -21.833
rtoes 47.2317
lfemur 15.1305 12.3601 -31.5855
ltibia 19.7663
lfoot -20.588 6.61561
ltoes -32.5311
1527
root 16.946 16.485 17.2321 564.916 -61.1788 149.4
lowerback 5.22345 -1.81407 -13.8922
upperback 1.48641 -3.27436 -1.17466
thorax -0.669894 -1.70944 6.71146
lowerneck -17.863 -4.43571 -5.96093
upperneck 24.7161 -7.75183 9.19425
head 11.6433 -3.16181 3.15995
rclavicle -8.84592e-015 1.82882e-014
rhumerus -50.1918 -9.30646 -66.4573
rradius 27.6877
rwrist 7.27951
rhand -9.10284 -33.6082
rfingers 7.12502
rthumb 16.8474 -62.8973
lclavicle -8.84592e-015 1.82882e-014
lhumerus -17.9929 -12.3474 84.5934
lradius 41.0363
lwrist 2.20935
lhand -22.4529 -26.8662
lfingers 7.12502
lthumb 3.97139 3.07657
rfemur -14.2972 -16.543 17.7208
rtibia 13.6982
rfoot -18.3013 -20.6301
rtoes 47.5783
lfemur 15.1297 12.6028 -30.8948
ltibia 21.3503
lfoot -20.4273 6.04496
ltoes -33.4648
1528
root 16.783 16.476 17.192 564.589 -60.6955 149.437
lowerback 4.75934 -1.97083 -13.5378
upperback 1.70104 -3.37501 -1.25911
thorax -0.186062 -1.80187 6.39704
lowerneck -17.7997 -4.41448 -5.90159
upperneck 24.7151 -7.75171 9.19169
head 11.6276 -3.16163 3.14912
rclavicle 6.07784e-014 4.6118e-014
rhumerus -49.8742 -9.78415 -66.3743
rradius 27.5551
rwrist 7.50005
rhand -9.11281 -33.9045
rfingers 7.12502
rthumb 16.8378 -63.1945
lclavicle 6.07784e-014 4.6118e-014
lhumerus -18.1703 -11.7271 84.6518
lradius 40.4569
lwrist 1.53043
lhand -22.5771 -27.0526
lfingers 7.12502
lthumb 3.85151 2.89229
rfemur -13.5354 -17.6062 17.2356
rtibia 14.0409
rfoot -18.3975 -19.2717
rtoes 47.1916
lfemur 15.2686 12.851 -30.9709
ltibia 22.8912
lfoot -19.9393 5.38761
ltoes -35.0401
1529
root 16.632 16.4707 17.1474 563.543 -60.2118 150.279
lowerback 4.41785 -2.22314 -12.6871
upperback 1.81652 -3.60928 -1.34926
thorax 0.11488 -1.93642 5.81394
lowerneck -17.6673 -4.25776 -5.91983
upperneck 24.6825 -7.61409 9.43891
head 11.5885 -3.083 3.26733
rclavicle 1.11121e-013 1.66979e-014
rhumerus -49.5118 -9.98864 -66.6301
rradius 27.3948
rwrist 7.67292
rhand -9.25593 -34.0283
rfingers 7.12502
rthumb 16.7001 -63.3299
lclavicle 1.11121e-013 1.66979e-014
lhumerus -18.6802 -10.6963 84.4737
lradius 39.8487
lwrist 0.480924
lhand -22.7668 -27.2012
lfingers 7.12502
lthumb 3.66827 2.74698
rfemur -12.8135 -18.3673 17.326
rtibia 14.1732
rfoot -17.8292 -18.7149
rtoes 45.1767
lfemur 15.2611 13.1015 -30.5243
ltibia 24.5667
lfoot -18.6175 4.77414
ltoes -36.2808
1530
root 16.5031 16.4659 17.0903 560.617 -60.0137 153.295
lowerback 4.22649 -2.11759 -10.8751
upperback 2.09933 -3.33901 -1.24544
thorax 0.361989 -1.80921 4.89854
lowerneck -18.2663 -4.44341 -5.45381
upperneck 25.0647 -8.1031 9.54075
head 11.8897 -3.2294 3.14358
rclavicle 6.49032e-014 1.59028e-014
rhumerus -49.3332 -11.3634 -66.6316
rradius 27.3481
rwrist 8.0815
rhand -9.03836 -33.8418
rfingers 7.12502
rthumb 16.9095 -63.1257
lclavicle 6.49032e-014 1.59028e-014
lhumerus -18.6375 -11.0333 84.3313
lradius 39.1478
lwrist 0.120674
lhand -22.5091 -27.1785
lfingers 7.12502
lthumb 3.91715 2.76521
rfemur -11.9339 -17.3803 18.8698
rtibia 13.9904
rfoot -18.4346 -18.7706
rtoes 45.3828
lfemur 15.052 13.2979 -28.5472
ltibia 26.5985
lfoot -17.4923 4.35813
ltoes -40.4889
1531
root 16.3823 16.4649 17.0321 557.999 -59.691 155.899
lowerback 4.29793 -2.04625 -9.71308
upperback 2.27705 -3.18246 -0.807597
thorax 0.439485 -1.72771 4.70675
lowerneck -18.5709 -4.57286 -5.55574
upperneck 25.3954 -8.31571 9.57815
head 12.1068 -3.31926 3.14071
rclavicle -3.10104e-014 2.38542e-015
rhumerus -49.0516 -11.6882 -66.6387
rradius 27.5716
rwrist 7.92199
rhand -8.64471 -33.7842
rfingers 7.12502
rthumb 17.2884 -63.0352
lclavicle -3.10104e-014 2.38542e-015
lhumerus -18.896 -10.552 84.6831
lradius 38.5418
lwrist -0.605735
lhand -21.9797 -27.2972
lfingers 7.12502
lthumb 4.42841 2.63654
rfemur -11.0204 -16.4889 20.2012
rtibia 13.8268
rfoot -18.8768 -18.8009
rtoes 45.496
lfemur 14.7575 13.4642 -26.7422
ltibia 28.796
lfoot -16.4429 3.04396
ltoes -39.6404
1532
root 16.258 16.471 16.98 556.688 -59.2619 157.032
lowerback 4.38809 -2.10925 -9.10711
upperback 2.34249 -3.24437 -0.598623
thorax 0.442664 -1.75433 4.59133
lowerneck -18.5478 -4.58217 -5.60626
upperneck 25.6134 -8.33107 9.48337
head 12.1856 -3.34593 3.11414
rclavicle -2.23633e-014 5.56597e-014
rhumerus -48.7091 -11.7963 -66.7667
rradius 27.6166
rwrist 7.9649
rhand -8.39473 -33.8582
rfingers 7.12502
rthumb 17.529 -63.088
lclavicle -2.23633e-014 5.56597e-014
lhumerus -19.458 -9.79787 84.9708
lradius 37.8788
lwrist -1.5613
lhand -21.7994 -27.5516
lfingers 7.12502
lthumb 4.60252 2.37844
rfemur -10.1549 -16.3497 20.5862
rtibia 13.8766
rfoot -19.2597 -18.3974
rtoes 45.2983
lfemur 14.412 13.5325 -25.8742
ltibia 30.9093
lfoot -14.6027 1.60916
ltoes -36.2894
